<mxfile host="app.diagrams.net" modified="2023-11-04T21:38:18.668Z" agent="Mozilla/5.0 (Windows NT 10.0; Win64; x64) AppleWebKit/537.36 (KHTML, like Gecko) Chrome/118.0.0.0 Safari/537.36" etag="i5PSaOcCn7UxjACQD-jR" version="22.0.8" type="device">
  <diagram name="Strona-1" id="bCPiP0ur1Ai6ecV5vX8Y">
    <mxGraphModel dx="989" dy="523" grid="1" gridSize="10" guides="1" tooltips="1" connect="1" arrows="1" fold="1" page="1" pageScale="1" pageWidth="827" pageHeight="1169" math="0" shadow="0">
      <root>
        <mxCell id="0" />
        <mxCell id="1" parent="0" />
        <mxCell id="U7rnJxmK2XgCcdnC8GJc-109" value="" style="rounded=1;whiteSpace=wrap;html=1;" vertex="1" parent="1">
          <mxGeometry x="145" y="110" width="695" height="390" as="geometry" />
        </mxCell>
        <mxCell id="U7rnJxmK2XgCcdnC8GJc-106" value="" style="rounded=1;whiteSpace=wrap;html=1;dashed=1;fillColor=#ffe6cc;strokeColor=#d79b00;opacity=50;" vertex="1" parent="1">
          <mxGeometry x="645" y="160" width="165" height="315" as="geometry" />
        </mxCell>
        <mxCell id="U7rnJxmK2XgCcdnC8GJc-105" value="" style="rounded=1;whiteSpace=wrap;html=1;dashed=1;fillColor=#d5e8d4;strokeColor=#82b366;opacity=50;" vertex="1" parent="1">
          <mxGeometry x="327.5" y="160" width="312.5" height="315" as="geometry" />
        </mxCell>
        <mxCell id="U7rnJxmK2XgCcdnC8GJc-102" value="" style="rounded=1;whiteSpace=wrap;html=1;dashed=1;fillColor=#dae8fc;strokeColor=#6c8ebf;opacity=50;" vertex="1" parent="1">
          <mxGeometry x="165" y="160" width="155" height="315" as="geometry" />
        </mxCell>
        <mxCell id="U7rnJxmK2XgCcdnC8GJc-5" value="" style="endArrow=classic;html=1;rounded=0;entryX=0;entryY=0.5;entryDx=0;entryDy=0;fillColor=#f8cecc;strokeColor=#b85450;" edge="1" parent="1" target="U7rnJxmK2XgCcdnC8GJc-6">
          <mxGeometry width="50" height="50" relative="1" as="geometry">
            <mxPoint x="120" y="225" as="sourcePoint" />
            <mxPoint x="340" y="300" as="targetPoint" />
          </mxGeometry>
        </mxCell>
        <mxCell id="U7rnJxmK2XgCcdnC8GJc-6" value="X" style="ellipse;whiteSpace=wrap;html=1;aspect=fixed;" vertex="1" parent="1">
          <mxGeometry x="230" y="210" width="30" height="30" as="geometry" />
        </mxCell>
        <mxCell id="U7rnJxmK2XgCcdnC8GJc-9" style="edgeStyle=orthogonalEdgeStyle;rounded=0;orthogonalLoop=1;jettySize=auto;html=1;entryX=0.5;entryY=1;entryDx=0;entryDy=0;" edge="1" parent="1" source="U7rnJxmK2XgCcdnC8GJc-7" target="U7rnJxmK2XgCcdnC8GJc-6">
          <mxGeometry relative="1" as="geometry" />
        </mxCell>
        <mxCell id="U7rnJxmK2XgCcdnC8GJc-7" value="Sigmoid" style="rounded=0;whiteSpace=wrap;html=1;fillColor=#dae8fc;strokeColor=#6c8ebf;" vertex="1" parent="1">
          <mxGeometry x="222.5" y="260" width="45" height="30" as="geometry" />
        </mxCell>
        <mxCell id="U7rnJxmK2XgCcdnC8GJc-51" style="edgeStyle=orthogonalEdgeStyle;rounded=0;orthogonalLoop=1;jettySize=auto;html=1;entryX=1;entryY=0.5;entryDx=0;entryDy=0;" edge="1" parent="1" source="U7rnJxmK2XgCcdnC8GJc-8" target="U7rnJxmK2XgCcdnC8GJc-49">
          <mxGeometry relative="1" as="geometry" />
        </mxCell>
        <mxCell id="U7rnJxmK2XgCcdnC8GJc-8" value="Tanh" style="rounded=0;whiteSpace=wrap;html=1;fillColor=#fff2cc;strokeColor=#d6b656;" vertex="1" parent="1">
          <mxGeometry x="534" y="260" width="60" height="30" as="geometry" />
        </mxCell>
        <mxCell id="U7rnJxmK2XgCcdnC8GJc-11" value="W&lt;sub&gt;f2&lt;/sub&gt;" style="rounded=0;whiteSpace=wrap;html=1;fillColor=#d5e8d4;strokeColor=#82b366;" vertex="1" parent="1">
          <mxGeometry x="225" y="360" width="40" height="30" as="geometry" />
        </mxCell>
        <mxCell id="U7rnJxmK2XgCcdnC8GJc-12" value="W&lt;sub&gt;f1&lt;/sub&gt;" style="rounded=0;whiteSpace=wrap;html=1;fillColor=#d5e8d4;strokeColor=#82b366;" vertex="1" parent="1">
          <mxGeometry x="170" y="340" width="40" height="30" as="geometry" />
        </mxCell>
        <mxCell id="U7rnJxmK2XgCcdnC8GJc-13" value="B&lt;span style=&quot;font-size: 10px;&quot;&gt;&lt;sub&gt;f&lt;/sub&gt;&lt;/span&gt;" style="rounded=0;whiteSpace=wrap;html=1;fillColor=#d5e8d4;strokeColor=#82b366;" vertex="1" parent="1">
          <mxGeometry x="275" y="310" width="40" height="30" as="geometry" />
        </mxCell>
        <mxCell id="U7rnJxmK2XgCcdnC8GJc-15" style="edgeStyle=orthogonalEdgeStyle;rounded=0;orthogonalLoop=1;jettySize=auto;html=1;" edge="1" parent="1" source="U7rnJxmK2XgCcdnC8GJc-14" target="U7rnJxmK2XgCcdnC8GJc-7">
          <mxGeometry relative="1" as="geometry" />
        </mxCell>
        <mxCell id="U7rnJxmK2XgCcdnC8GJc-14" value="" style="verticalLabelPosition=bottom;shadow=0;dashed=0;align=center;html=1;verticalAlign=top;shape=mxgraph.electrical.abstract.sum;" vertex="1" parent="1">
          <mxGeometry x="230" y="310" width="30" height="30" as="geometry" />
        </mxCell>
        <mxCell id="U7rnJxmK2XgCcdnC8GJc-17" style="edgeStyle=elbowEdgeStyle;rounded=0;orthogonalLoop=1;jettySize=auto;html=1;entryX=0;entryY=0.5;entryDx=0;entryDy=0;entryPerimeter=0;" edge="1" parent="1" source="U7rnJxmK2XgCcdnC8GJc-12" target="U7rnJxmK2XgCcdnC8GJc-14">
          <mxGeometry relative="1" as="geometry">
            <Array as="points">
              <mxPoint x="190" y="340" />
            </Array>
          </mxGeometry>
        </mxCell>
        <mxCell id="U7rnJxmK2XgCcdnC8GJc-18" style="edgeStyle=orthogonalEdgeStyle;rounded=0;orthogonalLoop=1;jettySize=auto;html=1;entryX=0.5;entryY=1;entryDx=0;entryDy=0;entryPerimeter=0;" edge="1" parent="1" source="U7rnJxmK2XgCcdnC8GJc-11" target="U7rnJxmK2XgCcdnC8GJc-14">
          <mxGeometry relative="1" as="geometry" />
        </mxCell>
        <mxCell id="U7rnJxmK2XgCcdnC8GJc-19" value="h(t&lt;sup&gt;-1&lt;/sup&gt;)" style="text;html=1;strokeColor=none;fillColor=none;align=center;verticalAlign=middle;whiteSpace=wrap;rounded=0;fontColor=#a082ae;" vertex="1" parent="1">
          <mxGeometry x="100" y="410" width="60" height="30" as="geometry" />
        </mxCell>
        <mxCell id="U7rnJxmK2XgCcdnC8GJc-22" value="" style="endArrow=classic;html=1;rounded=0;entryX=0.5;entryY=1;entryDx=0;entryDy=0;fillColor=#e1d5e7;strokeColor=#9673a6;" edge="1" parent="1" source="U7rnJxmK2XgCcdnC8GJc-24" target="U7rnJxmK2XgCcdnC8GJc-12">
          <mxGeometry width="50" height="50" relative="1" as="geometry">
            <mxPoint x="190" y="440" as="sourcePoint" />
            <mxPoint x="130" y="345" as="targetPoint" />
          </mxGeometry>
        </mxCell>
        <mxCell id="U7rnJxmK2XgCcdnC8GJc-23" value="" style="endArrow=classic;html=1;rounded=0;entryX=0.5;entryY=1;entryDx=0;entryDy=0;" edge="1" parent="1" target="U7rnJxmK2XgCcdnC8GJc-11">
          <mxGeometry width="50" height="50" relative="1" as="geometry">
            <mxPoint x="245" y="470" as="sourcePoint" />
            <mxPoint x="244.66" y="460" as="targetPoint" />
            <Array as="points" />
          </mxGeometry>
        </mxCell>
        <mxCell id="U7rnJxmK2XgCcdnC8GJc-24" value="" style="shape=waypoint;sketch=0;fillStyle=solid;size=6;pointerEvents=1;points=[];fillColor=#e1d5e7;resizable=0;rotatable=0;perimeter=centerPerimeter;snapToPoint=1;strokeColor=#9673a6;" vertex="1" parent="1">
          <mxGeometry x="180" y="430" width="20" height="20" as="geometry" />
        </mxCell>
        <mxCell id="U7rnJxmK2XgCcdnC8GJc-25" value="W&lt;sub&gt;i2&lt;/sub&gt;" style="rounded=0;whiteSpace=wrap;html=1;fillColor=#d5e8d4;strokeColor=#82b366;" vertex="1" parent="1">
          <mxGeometry x="385" y="360" width="40" height="30" as="geometry" />
        </mxCell>
        <mxCell id="U7rnJxmK2XgCcdnC8GJc-26" value="W&lt;sub&gt;i1&lt;/sub&gt;" style="rounded=0;whiteSpace=wrap;html=1;fillColor=#d5e8d4;strokeColor=#82b366;" vertex="1" parent="1">
          <mxGeometry x="330" y="340" width="40" height="30" as="geometry" />
        </mxCell>
        <mxCell id="U7rnJxmK2XgCcdnC8GJc-27" value="B&lt;sub&gt;i1&lt;/sub&gt;" style="rounded=0;whiteSpace=wrap;html=1;fillColor=#d5e8d4;strokeColor=#82b366;" vertex="1" parent="1">
          <mxGeometry x="435" y="310" width="40" height="30" as="geometry" />
        </mxCell>
        <mxCell id="U7rnJxmK2XgCcdnC8GJc-48" style="edgeStyle=orthogonalEdgeStyle;rounded=0;orthogonalLoop=1;jettySize=auto;html=1;entryX=0.5;entryY=1;entryDx=0;entryDy=0;" edge="1" parent="1" source="U7rnJxmK2XgCcdnC8GJc-28" target="U7rnJxmK2XgCcdnC8GJc-47">
          <mxGeometry relative="1" as="geometry" />
        </mxCell>
        <mxCell id="U7rnJxmK2XgCcdnC8GJc-28" value="" style="verticalLabelPosition=bottom;shadow=0;dashed=0;align=center;html=1;verticalAlign=top;shape=mxgraph.electrical.abstract.sum;" vertex="1" parent="1">
          <mxGeometry x="390" y="310" width="30" height="30" as="geometry" />
        </mxCell>
        <mxCell id="U7rnJxmK2XgCcdnC8GJc-30" style="edgeStyle=elbowEdgeStyle;rounded=0;orthogonalLoop=1;jettySize=auto;html=1;entryX=0;entryY=0.5;entryDx=0;entryDy=0;entryPerimeter=0;" edge="1" parent="1" source="U7rnJxmK2XgCcdnC8GJc-26" target="U7rnJxmK2XgCcdnC8GJc-28">
          <mxGeometry relative="1" as="geometry">
            <Array as="points">
              <mxPoint x="350" y="340" />
            </Array>
          </mxGeometry>
        </mxCell>
        <mxCell id="U7rnJxmK2XgCcdnC8GJc-31" style="edgeStyle=orthogonalEdgeStyle;rounded=0;orthogonalLoop=1;jettySize=auto;html=1;entryX=0.5;entryY=1;entryDx=0;entryDy=0;entryPerimeter=0;" edge="1" parent="1" source="U7rnJxmK2XgCcdnC8GJc-25" target="U7rnJxmK2XgCcdnC8GJc-28">
          <mxGeometry relative="1" as="geometry" />
        </mxCell>
        <mxCell id="U7rnJxmK2XgCcdnC8GJc-37" value="" style="endArrow=classic;html=1;rounded=0;entryX=0.5;entryY=1;entryDx=0;entryDy=0;fillColor=#e1d5e7;strokeColor=#9673a6;" edge="1" parent="1" source="U7rnJxmK2XgCcdnC8GJc-38">
          <mxGeometry width="50" height="50" relative="1" as="geometry">
            <mxPoint x="350" y="440" as="sourcePoint" />
            <mxPoint x="350" y="370" as="targetPoint" />
          </mxGeometry>
        </mxCell>
        <mxCell id="U7rnJxmK2XgCcdnC8GJc-65" style="edgeStyle=orthogonalEdgeStyle;rounded=0;orthogonalLoop=1;jettySize=auto;html=1;entryX=0.5;entryY=1;entryDx=0;entryDy=0;fillColor=#e1d5e7;strokeColor=#9673a6;" edge="1" parent="1" source="U7rnJxmK2XgCcdnC8GJc-38" target="U7rnJxmK2XgCcdnC8GJc-53">
          <mxGeometry relative="1" as="geometry" />
        </mxCell>
        <mxCell id="U7rnJxmK2XgCcdnC8GJc-38" value="" style="shape=waypoint;sketch=0;fillStyle=solid;size=6;pointerEvents=1;points=[];fillColor=#e1d5e7;resizable=0;rotatable=0;perimeter=centerPerimeter;snapToPoint=1;strokeColor=#9673a6;" vertex="1" parent="1">
          <mxGeometry x="340" y="430" width="20" height="20" as="geometry" />
        </mxCell>
        <mxCell id="U7rnJxmK2XgCcdnC8GJc-42" value="" style="endArrow=classic;html=1;rounded=0;entryX=0.5;entryY=1;entryDx=0;entryDy=0;" edge="1" parent="1" source="U7rnJxmK2XgCcdnC8GJc-43" target="U7rnJxmK2XgCcdnC8GJc-25">
          <mxGeometry width="50" height="50" relative="1" as="geometry">
            <mxPoint x="414" y="500" as="sourcePoint" />
            <mxPoint x="440" y="420" as="targetPoint" />
            <Array as="points" />
          </mxGeometry>
        </mxCell>
        <mxCell id="U7rnJxmK2XgCcdnC8GJc-44" value="" style="endArrow=none;html=1;rounded=0;exitX=0.986;exitY=0.421;exitDx=0;exitDy=0;exitPerimeter=0;" edge="1" parent="1" target="U7rnJxmK2XgCcdnC8GJc-43">
          <mxGeometry width="50" height="50" relative="1" as="geometry">
            <mxPoint x="245" y="470" as="sourcePoint" />
            <mxPoint x="370" y="380" as="targetPoint" />
          </mxGeometry>
        </mxCell>
        <mxCell id="U7rnJxmK2XgCcdnC8GJc-45" value="" style="endArrow=none;html=1;rounded=0;entryX=0.257;entryY=0.479;entryDx=0;entryDy=0;entryPerimeter=0;fillColor=#e1d5e7;strokeColor=#9673a6;" edge="1" parent="1" source="U7rnJxmK2XgCcdnC8GJc-24" target="U7rnJxmK2XgCcdnC8GJc-38">
          <mxGeometry width="50" height="50" relative="1" as="geometry">
            <mxPoint x="150" y="570" as="sourcePoint" />
            <mxPoint x="200" y="520" as="targetPoint" />
          </mxGeometry>
        </mxCell>
        <mxCell id="U7rnJxmK2XgCcdnC8GJc-43" value="" style="shape=waypoint;sketch=0;fillStyle=solid;size=6;pointerEvents=1;points=[];fillColor=none;resizable=0;rotatable=0;perimeter=centerPerimeter;snapToPoint=1;" vertex="1" parent="1">
          <mxGeometry x="395" y="460" width="20" height="20" as="geometry" />
        </mxCell>
        <mxCell id="U7rnJxmK2XgCcdnC8GJc-50" style="edgeStyle=orthogonalEdgeStyle;rounded=0;orthogonalLoop=1;jettySize=auto;html=1;entryX=0;entryY=0.5;entryDx=0;entryDy=0;" edge="1" parent="1" source="U7rnJxmK2XgCcdnC8GJc-47" target="U7rnJxmK2XgCcdnC8GJc-49">
          <mxGeometry relative="1" as="geometry" />
        </mxCell>
        <mxCell id="U7rnJxmK2XgCcdnC8GJc-47" value="Sigmoid" style="rounded=0;whiteSpace=wrap;html=1;fillColor=#dae8fc;strokeColor=#6c8ebf;" vertex="1" parent="1">
          <mxGeometry x="382.5" y="260" width="45" height="30" as="geometry" />
        </mxCell>
        <mxCell id="U7rnJxmK2XgCcdnC8GJc-49" value="X" style="ellipse;whiteSpace=wrap;html=1;aspect=fixed;" vertex="1" parent="1">
          <mxGeometry x="470" y="260" width="30" height="30" as="geometry" />
        </mxCell>
        <mxCell id="U7rnJxmK2XgCcdnC8GJc-52" value="W&lt;sub&gt;i4&lt;/sub&gt;" style="rounded=0;whiteSpace=wrap;html=1;fillColor=#d5e8d4;strokeColor=#82b366;" vertex="1" parent="1">
          <mxGeometry x="544" y="360" width="40" height="30" as="geometry" />
        </mxCell>
        <mxCell id="U7rnJxmK2XgCcdnC8GJc-53" value="W&lt;sub&gt;i3&lt;/sub&gt;" style="rounded=0;whiteSpace=wrap;html=1;fillColor=#d5e8d4;strokeColor=#82b366;" vertex="1" parent="1">
          <mxGeometry x="489" y="340" width="40" height="30" as="geometry" />
        </mxCell>
        <mxCell id="U7rnJxmK2XgCcdnC8GJc-54" value="B&lt;sub&gt;i2&lt;/sub&gt;" style="rounded=0;whiteSpace=wrap;html=1;fillColor=#d5e8d4;strokeColor=#82b366;" vertex="1" parent="1">
          <mxGeometry x="600" y="310" width="36" height="30" as="geometry" />
        </mxCell>
        <mxCell id="U7rnJxmK2XgCcdnC8GJc-59" style="edgeStyle=orthogonalEdgeStyle;rounded=0;orthogonalLoop=1;jettySize=auto;html=1;entryX=0.5;entryY=1;entryDx=0;entryDy=0;" edge="1" parent="1" source="U7rnJxmK2XgCcdnC8GJc-55" target="U7rnJxmK2XgCcdnC8GJc-8">
          <mxGeometry relative="1" as="geometry" />
        </mxCell>
        <mxCell id="U7rnJxmK2XgCcdnC8GJc-55" value="" style="verticalLabelPosition=bottom;shadow=0;dashed=0;align=center;html=1;verticalAlign=top;shape=mxgraph.electrical.abstract.sum;" vertex="1" parent="1">
          <mxGeometry x="549" y="310" width="30" height="30" as="geometry" />
        </mxCell>
        <mxCell id="U7rnJxmK2XgCcdnC8GJc-57" style="edgeStyle=elbowEdgeStyle;rounded=0;orthogonalLoop=1;jettySize=auto;html=1;entryX=0;entryY=0.5;entryDx=0;entryDy=0;entryPerimeter=0;" edge="1" parent="1" source="U7rnJxmK2XgCcdnC8GJc-53" target="U7rnJxmK2XgCcdnC8GJc-55">
          <mxGeometry relative="1" as="geometry">
            <Array as="points">
              <mxPoint x="509" y="340" />
            </Array>
          </mxGeometry>
        </mxCell>
        <mxCell id="U7rnJxmK2XgCcdnC8GJc-58" style="edgeStyle=orthogonalEdgeStyle;rounded=0;orthogonalLoop=1;jettySize=auto;html=1;entryX=0.5;entryY=1;entryDx=0;entryDy=0;entryPerimeter=0;" edge="1" parent="1" source="U7rnJxmK2XgCcdnC8GJc-52" target="U7rnJxmK2XgCcdnC8GJc-55">
          <mxGeometry relative="1" as="geometry" />
        </mxCell>
        <mxCell id="U7rnJxmK2XgCcdnC8GJc-60" value="" style="endArrow=none;html=1;rounded=0;entryX=0.336;entryY=0.65;entryDx=0;entryDy=0;entryPerimeter=0;fillColor=#e1d5e7;strokeColor=#9673a6;" edge="1" parent="1" target="U7rnJxmK2XgCcdnC8GJc-24">
          <mxGeometry width="50" height="50" relative="1" as="geometry">
            <mxPoint x="120" y="440" as="sourcePoint" />
            <mxPoint x="170" y="469.71" as="targetPoint" />
          </mxGeometry>
        </mxCell>
        <mxCell id="U7rnJxmK2XgCcdnC8GJc-63" value="" style="endArrow=none;html=1;rounded=0;" edge="1" parent="1" source="U7rnJxmK2XgCcdnC8GJc-43" target="U7rnJxmK2XgCcdnC8GJc-62">
          <mxGeometry width="50" height="50" relative="1" as="geometry">
            <mxPoint x="380" y="520" as="sourcePoint" />
            <mxPoint x="590" y="470" as="targetPoint" />
          </mxGeometry>
        </mxCell>
        <mxCell id="U7rnJxmK2XgCcdnC8GJc-64" style="edgeStyle=orthogonalEdgeStyle;rounded=0;orthogonalLoop=1;jettySize=auto;html=1;entryX=0.5;entryY=1;entryDx=0;entryDy=0;" edge="1" parent="1" source="U7rnJxmK2XgCcdnC8GJc-62" target="U7rnJxmK2XgCcdnC8GJc-52">
          <mxGeometry relative="1" as="geometry">
            <mxPoint x="564" y="470" as="sourcePoint" />
            <Array as="points">
              <mxPoint x="564" y="470" />
            </Array>
          </mxGeometry>
        </mxCell>
        <mxCell id="U7rnJxmK2XgCcdnC8GJc-91" style="edgeStyle=elbowEdgeStyle;rounded=0;orthogonalLoop=1;jettySize=auto;html=1;exitX=1;exitY=0.5;exitDx=0;exitDy=0;exitPerimeter=0;entryX=0.5;entryY=0;entryDx=0;entryDy=0;fillColor=#f8cecc;strokeColor=#b85450;" edge="1" parent="1" source="U7rnJxmK2XgCcdnC8GJc-66" target="U7rnJxmK2XgCcdnC8GJc-87">
          <mxGeometry relative="1" as="geometry">
            <Array as="points">
              <mxPoint x="775" y="230" />
            </Array>
          </mxGeometry>
        </mxCell>
        <mxCell id="U7rnJxmK2XgCcdnC8GJc-66" value="" style="verticalLabelPosition=bottom;shadow=0;dashed=0;align=center;html=1;verticalAlign=top;shape=mxgraph.electrical.abstract.sum;" vertex="1" parent="1">
          <mxGeometry x="470" y="210" width="30" height="30" as="geometry" />
        </mxCell>
        <mxCell id="U7rnJxmK2XgCcdnC8GJc-67" style="edgeStyle=orthogonalEdgeStyle;rounded=0;orthogonalLoop=1;jettySize=auto;html=1;entryX=0.5;entryY=1;entryDx=0;entryDy=0;entryPerimeter=0;" edge="1" parent="1" source="U7rnJxmK2XgCcdnC8GJc-49" target="U7rnJxmK2XgCcdnC8GJc-66">
          <mxGeometry relative="1" as="geometry" />
        </mxCell>
        <mxCell id="U7rnJxmK2XgCcdnC8GJc-68" style="edgeStyle=orthogonalEdgeStyle;rounded=0;orthogonalLoop=1;jettySize=auto;html=1;entryX=0;entryY=0.5;entryDx=0;entryDy=0;entryPerimeter=0;fillColor=#f8cecc;strokeColor=#b85450;" edge="1" parent="1" source="U7rnJxmK2XgCcdnC8GJc-6" target="U7rnJxmK2XgCcdnC8GJc-66">
          <mxGeometry relative="1" as="geometry" />
        </mxCell>
        <mxCell id="U7rnJxmK2XgCcdnC8GJc-69" value="c(t&lt;sup&gt;-1&lt;/sup&gt;)" style="text;html=1;strokeColor=none;fillColor=none;align=center;verticalAlign=middle;whiteSpace=wrap;rounded=0;fontColor=#c97e7b;" vertex="1" parent="1">
          <mxGeometry x="100" y="200" width="60" height="30" as="geometry" />
        </mxCell>
        <mxCell id="U7rnJxmK2XgCcdnC8GJc-70" value="W&lt;sub&gt;o2&lt;/sub&gt;" style="rounded=0;whiteSpace=wrap;html=1;fillColor=#d5e8d4;strokeColor=#82b366;" vertex="1" parent="1">
          <mxGeometry x="700" y="410" width="40" height="30" as="geometry" />
        </mxCell>
        <mxCell id="U7rnJxmK2XgCcdnC8GJc-71" value="W&lt;sub&gt;o1&lt;/sub&gt;" style="rounded=0;whiteSpace=wrap;html=1;fillColor=#d5e8d4;strokeColor=#82b366;" vertex="1" parent="1">
          <mxGeometry x="650" y="390" width="40" height="30" as="geometry" />
        </mxCell>
        <mxCell id="U7rnJxmK2XgCcdnC8GJc-72" value="B&lt;span style=&quot;font-size: 10px;&quot;&gt;&lt;sub&gt;o&lt;/sub&gt;&lt;/span&gt;" style="rounded=0;whiteSpace=wrap;html=1;fillColor=#d5e8d4;strokeColor=#82b366;" vertex="1" parent="1">
          <mxGeometry x="755" y="360" width="40" height="30" as="geometry" />
        </mxCell>
        <mxCell id="U7rnJxmK2XgCcdnC8GJc-86" style="edgeStyle=orthogonalEdgeStyle;rounded=0;orthogonalLoop=1;jettySize=auto;html=1;entryX=0.5;entryY=1;entryDx=0;entryDy=0;" edge="1" parent="1" source="U7rnJxmK2XgCcdnC8GJc-73">
          <mxGeometry relative="1" as="geometry">
            <mxPoint x="719.9999999999998" y="320" as="targetPoint" />
          </mxGeometry>
        </mxCell>
        <mxCell id="U7rnJxmK2XgCcdnC8GJc-73" value="" style="verticalLabelPosition=bottom;shadow=0;dashed=0;align=center;html=1;verticalAlign=top;shape=mxgraph.electrical.abstract.sum;" vertex="1" parent="1">
          <mxGeometry x="705" y="360" width="30" height="30" as="geometry" />
        </mxCell>
        <mxCell id="U7rnJxmK2XgCcdnC8GJc-74" style="edgeStyle=elbowEdgeStyle;rounded=0;orthogonalLoop=1;jettySize=auto;html=1;entryX=1;entryY=0.5;entryDx=0;entryDy=0;entryPerimeter=0;" edge="1" parent="1" source="U7rnJxmK2XgCcdnC8GJc-72" target="U7rnJxmK2XgCcdnC8GJc-73">
          <mxGeometry relative="1" as="geometry">
            <mxPoint x="765" y="375" as="targetPoint" />
            <Array as="points">
              <mxPoint x="775" y="380" />
            </Array>
          </mxGeometry>
        </mxCell>
        <mxCell id="U7rnJxmK2XgCcdnC8GJc-75" style="edgeStyle=elbowEdgeStyle;rounded=0;orthogonalLoop=1;jettySize=auto;html=1;entryX=0;entryY=0.5;entryDx=0;entryDy=0;entryPerimeter=0;exitX=0.5;exitY=0;exitDx=0;exitDy=0;" edge="1" parent="1" source="U7rnJxmK2XgCcdnC8GJc-71" target="U7rnJxmK2XgCcdnC8GJc-73">
          <mxGeometry relative="1" as="geometry">
            <Array as="points">
              <mxPoint x="670" y="380" />
            </Array>
            <mxPoint x="620" y="390" as="sourcePoint" />
          </mxGeometry>
        </mxCell>
        <mxCell id="U7rnJxmK2XgCcdnC8GJc-76" style="edgeStyle=orthogonalEdgeStyle;rounded=0;orthogonalLoop=1;jettySize=auto;html=1;entryX=0.5;entryY=1;entryDx=0;entryDy=0;entryPerimeter=0;" edge="1" parent="1" source="U7rnJxmK2XgCcdnC8GJc-70" target="U7rnJxmK2XgCcdnC8GJc-73">
          <mxGeometry relative="1" as="geometry" />
        </mxCell>
        <mxCell id="U7rnJxmK2XgCcdnC8GJc-77" value="" style="edgeStyle=orthogonalEdgeStyle;rounded=0;orthogonalLoop=1;jettySize=auto;html=1;entryDx=0;entryDy=0;" edge="1" parent="1" target="U7rnJxmK2XgCcdnC8GJc-62">
          <mxGeometry relative="1" as="geometry">
            <mxPoint x="564" y="470" as="sourcePoint" />
            <mxPoint x="564" y="390" as="targetPoint" />
            <Array as="points" />
          </mxGeometry>
        </mxCell>
        <mxCell id="U7rnJxmK2XgCcdnC8GJc-80" style="edgeStyle=orthogonalEdgeStyle;rounded=0;orthogonalLoop=1;jettySize=auto;html=1;entryX=0.5;entryY=1;entryDx=0;entryDy=0;" edge="1" parent="1" source="U7rnJxmK2XgCcdnC8GJc-62" target="U7rnJxmK2XgCcdnC8GJc-70">
          <mxGeometry relative="1" as="geometry" />
        </mxCell>
        <mxCell id="U7rnJxmK2XgCcdnC8GJc-62" value="" style="shape=waypoint;sketch=0;fillStyle=solid;size=6;pointerEvents=1;points=[];fillColor=none;resizable=0;rotatable=0;perimeter=centerPerimeter;snapToPoint=1;" vertex="1" parent="1">
          <mxGeometry x="554" y="460" width="20" height="20" as="geometry" />
        </mxCell>
        <mxCell id="U7rnJxmK2XgCcdnC8GJc-79" style="edgeStyle=elbowEdgeStyle;rounded=0;orthogonalLoop=1;jettySize=auto;html=1;entryX=0.5;entryY=1;entryDx=0;entryDy=0;fillColor=#e1d5e7;strokeColor=#9673a6;exitX=0.6;exitY=0.729;exitDx=0;exitDy=0;exitPerimeter=0;" edge="1" parent="1" source="U7rnJxmK2XgCcdnC8GJc-78" target="U7rnJxmK2XgCcdnC8GJc-71">
          <mxGeometry relative="1" as="geometry">
            <mxPoint x="670" y="550" as="sourcePoint" />
            <Array as="points">
              <mxPoint x="670" y="430" />
            </Array>
          </mxGeometry>
        </mxCell>
        <mxCell id="U7rnJxmK2XgCcdnC8GJc-78" value="" style="shape=waypoint;sketch=0;fillStyle=solid;size=6;pointerEvents=1;points=[];fillColor=#e1d5e7;resizable=0;rotatable=0;perimeter=centerPerimeter;snapToPoint=1;strokeColor=#9673a6;" vertex="1" parent="1">
          <mxGeometry x="499" y="430" width="20" height="20" as="geometry" />
        </mxCell>
        <mxCell id="U7rnJxmK2XgCcdnC8GJc-81" style="edgeStyle=orthogonalEdgeStyle;rounded=0;orthogonalLoop=1;jettySize=auto;html=1;entryX=1;entryY=0.5;entryDx=0;entryDy=0;entryPerimeter=0;" edge="1" parent="1" source="U7rnJxmK2XgCcdnC8GJc-54" target="U7rnJxmK2XgCcdnC8GJc-55">
          <mxGeometry relative="1" as="geometry" />
        </mxCell>
        <mxCell id="U7rnJxmK2XgCcdnC8GJc-83" style="rounded=0;orthogonalLoop=1;jettySize=auto;html=1;entryX=1;entryY=0.5;entryDx=0;entryDy=0;entryPerimeter=0;" edge="1" parent="1" source="U7rnJxmK2XgCcdnC8GJc-27" target="U7rnJxmK2XgCcdnC8GJc-28">
          <mxGeometry relative="1" as="geometry" />
        </mxCell>
        <mxCell id="U7rnJxmK2XgCcdnC8GJc-84" style="rounded=0;orthogonalLoop=1;jettySize=auto;html=1;entryX=1;entryY=0.5;entryDx=0;entryDy=0;entryPerimeter=0;" edge="1" parent="1" source="U7rnJxmK2XgCcdnC8GJc-13" target="U7rnJxmK2XgCcdnC8GJc-14">
          <mxGeometry relative="1" as="geometry" />
        </mxCell>
        <mxCell id="U7rnJxmK2XgCcdnC8GJc-89" style="edgeStyle=orthogonalEdgeStyle;rounded=0;orthogonalLoop=1;jettySize=auto;html=1;entryX=0;entryY=0.5;entryDx=0;entryDy=0;" edge="1" parent="1" target="U7rnJxmK2XgCcdnC8GJc-88">
          <mxGeometry relative="1" as="geometry">
            <mxPoint x="742.4999999999998" y="305" as="sourcePoint" />
          </mxGeometry>
        </mxCell>
        <mxCell id="U7rnJxmK2XgCcdnC8GJc-85" value="Sigmoid" style="rounded=0;whiteSpace=wrap;html=1;fillColor=#dae8fc;strokeColor=#6c8ebf;" vertex="1" parent="1">
          <mxGeometry x="690" y="290" width="45" height="30" as="geometry" />
        </mxCell>
        <mxCell id="U7rnJxmK2XgCcdnC8GJc-87" value="Tanh" style="rounded=0;whiteSpace=wrap;html=1;fillColor=#fff2cc;strokeColor=#d6b656;" vertex="1" parent="1">
          <mxGeometry x="745" y="240" width="60" height="30" as="geometry" />
        </mxCell>
        <mxCell id="U7rnJxmK2XgCcdnC8GJc-92" style="edgeStyle=orthogonalEdgeStyle;rounded=0;orthogonalLoop=1;jettySize=auto;html=1;fillColor=#e1d5e7;strokeColor=#9673a6;" edge="1" parent="1" source="U7rnJxmK2XgCcdnC8GJc-88">
          <mxGeometry relative="1" as="geometry">
            <mxPoint x="874.9999999999998" y="440" as="targetPoint" />
            <Array as="points">
              <mxPoint x="825" y="305" />
              <mxPoint x="825" y="440" />
            </Array>
          </mxGeometry>
        </mxCell>
        <mxCell id="U7rnJxmK2XgCcdnC8GJc-88" value="X" style="ellipse;whiteSpace=wrap;html=1;aspect=fixed;" vertex="1" parent="1">
          <mxGeometry x="760" y="290" width="30" height="30" as="geometry" />
        </mxCell>
        <mxCell id="U7rnJxmK2XgCcdnC8GJc-90" style="rounded=0;orthogonalLoop=1;jettySize=auto;html=1;entryX=0.5;entryY=0;entryDx=0;entryDy=0;" edge="1" parent="1" source="U7rnJxmK2XgCcdnC8GJc-87" target="U7rnJxmK2XgCcdnC8GJc-88">
          <mxGeometry relative="1" as="geometry" />
        </mxCell>
        <mxCell id="U7rnJxmK2XgCcdnC8GJc-94" style="edgeStyle=orthogonalEdgeStyle;rounded=0;orthogonalLoop=1;jettySize=auto;html=1;fillColor=#f8cecc;strokeColor=#b85450;" edge="1" parent="1" source="U7rnJxmK2XgCcdnC8GJc-93">
          <mxGeometry relative="1" as="geometry">
            <mxPoint x="875" y="225" as="targetPoint" />
          </mxGeometry>
        </mxCell>
        <mxCell id="U7rnJxmK2XgCcdnC8GJc-93" value="" style="shape=waypoint;sketch=0;fillStyle=solid;size=6;pointerEvents=1;points=[];fillColor=#f8cecc;resizable=0;rotatable=0;perimeter=centerPerimeter;snapToPoint=1;strokeColor=#b85450;" vertex="1" parent="1">
          <mxGeometry x="765" y="215" width="20" height="20" as="geometry" />
        </mxCell>
        <mxCell id="U7rnJxmK2XgCcdnC8GJc-95" value="c(t)" style="text;html=1;strokeColor=none;fillColor=none;align=center;verticalAlign=middle;whiteSpace=wrap;rounded=0;fontColor=#c97e7b;" vertex="1" parent="1">
          <mxGeometry x="825" y="200" width="60" height="30" as="geometry" />
        </mxCell>
        <mxCell id="U7rnJxmK2XgCcdnC8GJc-96" value="h(t)" style="text;html=1;strokeColor=none;fillColor=none;align=center;verticalAlign=middle;whiteSpace=wrap;rounded=0;fontColor=#a082ae;" vertex="1" parent="1">
          <mxGeometry x="835" y="410" width="60" height="30" as="geometry" />
        </mxCell>
        <mxCell id="U7rnJxmK2XgCcdnC8GJc-98" value="" style="endArrow=none;html=1;rounded=0;" edge="1" parent="1" source="U7rnJxmK2XgCcdnC8GJc-99">
          <mxGeometry width="50" height="50" relative="1" as="geometry">
            <mxPoint x="285" y="600" as="sourcePoint" />
            <mxPoint x="250" y="470" as="targetPoint" />
          </mxGeometry>
        </mxCell>
        <mxCell id="U7rnJxmK2XgCcdnC8GJc-100" value="" style="endArrow=none;html=1;rounded=0;exitX=0.168;exitY=0.951;exitDx=0;exitDy=0;exitPerimeter=0;" edge="1" parent="1" source="U7rnJxmK2XgCcdnC8GJc-101" target="U7rnJxmK2XgCcdnC8GJc-99">
          <mxGeometry width="50" height="50" relative="1" as="geometry">
            <mxPoint x="245" y="530" as="sourcePoint" />
            <mxPoint x="250" y="470" as="targetPoint" />
          </mxGeometry>
        </mxCell>
        <mxCell id="U7rnJxmK2XgCcdnC8GJc-99" value="" style="shape=waypoint;sketch=0;fillStyle=solid;size=6;pointerEvents=1;points=[];fillColor=none;resizable=0;rotatable=0;perimeter=centerPerimeter;snapToPoint=1;" vertex="1" parent="1">
          <mxGeometry x="235" y="460" width="20" height="20" as="geometry" />
        </mxCell>
        <mxCell id="U7rnJxmK2XgCcdnC8GJc-101" value="U(t)" style="text;html=1;strokeColor=none;fillColor=none;align=center;verticalAlign=middle;whiteSpace=wrap;rounded=0;" vertex="1" parent="1">
          <mxGeometry x="235" y="500" width="60" height="30" as="geometry" />
        </mxCell>
        <mxCell id="U7rnJxmK2XgCcdnC8GJc-103" value="&lt;font style=&quot;font-size: 15px;&quot;&gt;Komórka LSTM&lt;/font&gt;" style="text;html=1;strokeColor=none;fillColor=none;align=center;verticalAlign=middle;whiteSpace=wrap;rounded=0;" vertex="1" parent="1">
          <mxGeometry x="437.5" y="120" width="110" height="30" as="geometry" />
        </mxCell>
        <mxCell id="U7rnJxmK2XgCcdnC8GJc-104" value="Bramka &quot;zapominająca&quot;&lt;br&gt;(ang. &lt;b&gt;Forget gate&lt;/b&gt;)" style="text;html=1;strokeColor=none;fillColor=none;align=center;verticalAlign=middle;whiteSpace=wrap;rounded=0;" vertex="1" parent="1">
          <mxGeometry x="164" y="170" width="157" height="30" as="geometry" />
        </mxCell>
        <mxCell id="U7rnJxmK2XgCcdnC8GJc-107" value="Bramka wejściowa&lt;br&gt;(ang. &lt;b&gt;Input&amp;nbsp;gate&lt;/b&gt;)" style="text;html=1;strokeColor=none;fillColor=none;align=center;verticalAlign=middle;whiteSpace=wrap;rounded=0;" vertex="1" parent="1">
          <mxGeometry x="405.25" y="170" width="157" height="30" as="geometry" />
        </mxCell>
        <mxCell id="U7rnJxmK2XgCcdnC8GJc-108" value="Bramka wyjściowa&lt;br&gt;(ang. &lt;b&gt;Output gate&lt;/b&gt;)" style="text;html=1;strokeColor=none;fillColor=none;align=center;verticalAlign=middle;whiteSpace=wrap;rounded=0;" vertex="1" parent="1">
          <mxGeometry x="649" y="170" width="157" height="30" as="geometry" />
        </mxCell>
      </root>
    </mxGraphModel>
  </diagram>
</mxfile>
